<?xml version="1.0" encoding="utf-8"?>
<!-- Generator: Adobe Illustrator 21.1.0, SVG Export Plug-In . SVG Version: 6.00 Build 0)  -->
<svg version="1.1" id="Layer_1" xmlns="http://www.w3.org/2000/svg" xmlns:xlink="http://www.w3.org/1999/xlink" x="0px" y="0px"
	 viewBox="0 0 293 107" style="enable-background:new 0 0 293 107;" xml:space="preserve">
<style type="text/css">
	.st0{fill:#00A7E2;}
</style>
<g>
	<g>
		<path class="st0" d="M144.7,64.8c-4.1-2.1-7.2-5.1-9.5-8.9c-2.3-3.8-3.4-8.1-3.4-12.9c0-4.8,1.1-9.1,3.4-12.9
			c2.3-3.8,5.5-6.8,9.5-8.9c4.1-2.1,8.6-3.2,13.7-3.2c4.6,0,8.8,0.8,12.4,2.5c3.6,1.6,6.6,4,9,7.1l-10.2,9.1
			c-3-3.7-6.4-5.6-10.5-5.6c-3.4,0-6.1,1.1-8.1,3.2c-2,2.2-3.1,5.1-3.1,8.7c0,3.6,1,6.5,3.1,8.7c2,2.2,4.8,3.2,8.1,3.2
			c4,0,7.5-1.9,10.5-5.6l10.2,9.1c-2.4,3.1-5.4,5.5-9,7.1c-3.6,1.6-7.8,2.5-12.4,2.5C153.3,68,148.8,66.9,144.7,64.8z"/>
		<path class="st0" d="M205,54.9h-4.4v12h-16.1V19.1h23c4.4,0,8.3,0.7,11.5,2.2c3.3,1.5,5.8,3.6,7.6,6.3c1.8,2.7,2.7,5.9,2.7,9.6
			c0,3.4-0.8,6.4-2.3,8.9c-1.5,2.6-3.8,4.6-6.7,6.1l10,14.8h-17.2L205,54.9z M211.4,33c-1.1-1-2.7-1.5-4.9-1.5h-5.9v11.2h5.9
			c2.2,0,3.8-0.5,4.9-1.5c1.1-1,1.6-2.4,1.6-4.1S212.5,34,211.4,33z"/>
		<path class="st0" d="M278.1,66.9l-0.1-21.8l-10.4,17.5h-7.1l-10.4-16.7v21h-14.7V19.1h13.3l15.6,25.5l15.2-25.5h13.3l0.1,47.8
			H278.1z"/>
	</g>
	<g>
		<path class="st0" d="M85.2,11.3c5.7,0,10.4,4.6,10.4,10.4v63.7c0,5.7-4.6,10.4-10.4,10.4H21.6c-5.7,0-10.4-4.6-10.4-10.4V21.6
			c0-5.7,4.6-10.4,10.4-10.4H85.2 M85.2,8H21.6C14,8,7.9,14.1,7.9,21.6v63.7c0,7.5,6.1,13.6,13.6,13.6h63.7
			c7.5,0,13.6-6.1,13.6-13.6V21.6C98.8,14.1,92.7,8,85.2,8L85.2,8z"/>
		<g>
			<rect x="18" y="0.1" class="st0" width="9.2" height="9.9"/>
			<rect x="38.4" y="0.1" class="st0" width="9.2" height="9.9"/>
			<rect x="58.8" y="0.1" class="st0" width="9.2" height="9.9"/>
			<rect x="79.2" y="0.1" class="st0" width="9.2" height="9.9"/>
		</g>
		<g>
			<rect x="18.3" y="97" class="st0" width="9.2" height="9.8"/>
			<rect x="38.7" y="97" class="st0" width="9.2" height="9.8"/>
			<rect x="59.1" y="97" class="st0" width="9.2" height="9.8"/>
			<rect x="79.6" y="97" class="st0" width="9.2" height="9.8"/>
		</g>
		<g>
			<g>
				
					<rect x="97.7" y="79.7" transform="matrix(6.123234e-17 -1 1 6.123234e-17 18.2277 186.4235)" class="st0" width="9.2" height="8.8"/>
				
					<rect x="97.7" y="59.3" transform="matrix(6.123234e-17 -1 1 6.123234e-17 38.6496 166.0016)" class="st0" width="9.2" height="8.8"/>
				
					<rect x="97.7" y="38.8" transform="matrix(6.123234e-17 -1 1 6.123234e-17 59.0716 145.5796)" class="st0" width="9.2" height="8.8"/>
				
					<rect x="97.7" y="18.4" transform="matrix(6.123234e-17 -1 1 6.123234e-17 79.4935 125.1577)" class="st0" width="9.2" height="8.8"/>
			</g>
			<g>
				
					<rect x="0.4" y="79.2" transform="matrix(6.123234e-17 -1 1 6.123234e-17 -79.1329 89.0629)" class="st0" width="9.2" height="9.9"/>
				
					<rect x="0.4" y="58.7" transform="matrix(6.123234e-17 -1 1 6.123234e-17 -58.711 68.641)" class="st0" width="9.2" height="9.9"/>
				
					<rect x="0.4" y="38.3" transform="matrix(6.123234e-17 -1 1 6.123234e-17 -38.289 48.219)" class="st0" width="9.2" height="9.9"/>
				
					<rect x="0.4" y="17.9" transform="matrix(6.123234e-17 -1 1 6.123234e-17 -17.8671 27.7971)" class="st0" width="9.2" height="9.9"/>
			</g>
		</g>
		<g>
			<rect x="81.4" y="70.2" class="st0" width="16.2" height="0.9"/>
		</g>
		<g>
			<path class="st0" d="M78.2,69.2c-0.9,0-1.7-0.8-1.7-1.7s0.8-1.7,1.7-1.7c0.9,0,1.7,0.8,1.7,1.7S79.1,69.2,78.2,69.2z M78.2,66.7
				c-0.4,0-0.8,0.3-0.8,0.8c0,0.4,0.3,0.8,0.8,0.8c0.4,0,0.8-0.3,0.8-0.8C78.9,67.1,78.6,66.7,78.2,66.7z"/>
		</g>
		<g>
			<polygon class="st0" points="82.3,71 79.3,67.9 78.6,68.6 81.2,71.2 82.2,71.2 			"/>
		</g>
		<g>
			<rect x="61.1" y="82.5" class="st0" width="36.5" height="0.9"/>
		</g>
		<g>
			<path class="st0" d="M57.8,81.5c-0.9,0-1.7-0.8-1.7-1.7s0.8-1.7,1.7-1.7s1.7,0.8,1.7,1.7S58.8,81.5,57.8,81.5z M57.8,79
				c-0.4,0-0.8,0.3-0.8,0.8c0,0.4,0.3,0.8,0.8,0.8s0.8-0.3,0.8-0.8C58.6,79.4,58.3,79,57.8,79z"/>
		</g>
		<g>
			<polygon class="st0" points="62,83.3 58.9,80.2 58.3,80.9 60.9,83.5 61.8,83.5 			"/>
		</g>
		<g>
			<rect x="68.3" y="10.1" class="st0" width="0.9" height="21.7"/>
		</g>
		<g>
			<path class="st0" d="M70.5,32.9c0,0.9-0.8,1.7-1.7,1.7s-1.7-0.8-1.7-1.7c0-0.9,0.8-1.7,1.7-1.7S70.5,31.9,70.5,32.9z M68,32.9
				c0,0.4,0.3,0.8,0.8,0.8c0.4,0,0.8-0.3,0.8-0.8s-0.3-0.8-0.8-0.8C68.3,32.1,68,32.4,68,32.9z"/>
		</g>
		<g>
			<rect x="80.6" y="10.1" class="st0" width="0.9" height="42"/>
		</g>
		<g>
			<path class="st0" d="M82.8,53.2c0,0.9-0.8,1.7-1.7,1.7c-0.9,0-1.7-0.8-1.7-1.7s0.8-1.7,1.7-1.7C82,51.5,82.8,52.2,82.8,53.2z
				 M80.3,53.2c0,0.4,0.3,0.8,0.8,0.8c0.4,0,0.8-0.3,0.8-0.8s-0.3-0.8-0.8-0.8C80.7,52.4,80.3,52.7,80.3,53.2z"/>
		</g>
		<g>
			<rect x="29.9" y="80.5" class="st0" width="0.9" height="16.2"/>
		</g>
		<g>
			<path class="st0" d="M27.1,79c-0.9,0-1.7-0.8-1.7-1.7s0.8-1.7,1.7-1.7c0.9,0,1.7,0.8,1.7,1.7S28,79,27.1,79z M27.1,78.1
				c0.4,0,0.8-0.3,0.8-0.8c0-0.4-0.3-0.8-0.8-0.8s-0.8,0.3-0.8,0.8C26.3,77.7,26.7,78.1,27.1,78.1z"/>
		</g>
		<g>
			<polygon class="st0" points="30.6,81.5 27.5,78.4 28.2,77.8 30.8,80.4 30.8,81.3 			"/>
		</g>
		<g>
			<rect x="42.2" y="60.2" class="st0" width="0.9" height="36.5"/>
		</g>
		<g>
			<path class="st0" d="M39.4,58.7c-0.9,0-1.7-0.8-1.7-1.7c0-0.9,0.8-1.7,1.7-1.7c0.9,0,1.7,0.8,1.7,1.7
				C41.1,57.9,40.3,58.7,39.4,58.7z M39.4,57.8c0.4,0,0.8-0.3,0.8-0.8s-0.3-0.8-0.8-0.8s-0.8,0.3-0.8,0.8S39,57.8,39.4,57.8z"/>
		</g>
		<g>
			<polygon class="st0" points="42.9,61.2 39.8,58.1 40.5,57.5 43.1,60.1 43.1,61 			"/>
		</g>
		<g>
			<rect x="10.6" y="25.9" class="st0" width="21.7" height="0.9"/>
		</g>
		<g>
			<path class="st0" d="M31.7,26.4c0-0.9,0.8-1.7,1.7-1.7s1.7,0.8,1.7,1.7c0,0.9-0.8,1.7-1.7,1.7S31.7,27.3,31.7,26.4z M32.6,26.4
				c0,0.4,0.3,0.8,0.8,0.8s0.8-0.3,0.8-0.8s-0.3-0.8-0.8-0.8S32.6,26,32.6,26.4z"/>
		</g>
		<g>
			<rect x="10.6" y="38.2" class="st0" width="42" height="0.9"/>
		</g>
		<g>
			<path class="st0" d="M52,38.7c0-0.9,0.8-1.7,1.7-1.7s1.7,0.8,1.7,1.7s-0.8,1.7-1.7,1.7S52,39.6,52,38.7z M52.9,38.7
				c0,0.4,0.3,0.8,0.8,0.8s0.8-0.3,0.8-0.8s-0.3-0.8-0.8-0.8S52.9,38.3,52.9,38.7z"/>
		</g>
	</g>
	<g>
		<path class="st0" d="M135.1,81h3v4.3c0,2.2-1.1,3.4-3.2,3.4c-2.1,0-3.2-1.2-3.2-3.4v-7.1c0-2.2,1.1-3.4,3.2-3.4
			c2.1,0,3.2,1.2,3.2,3.4v1.3h-2v-1.5c0-1-0.4-1.3-1.1-1.3c-0.7,0-1.1,0.4-1.1,1.3v7.4c0,1,0.4,1.3,1.1,1.3c0.7,0,1.1-0.3,1.1-1.3
			v-2.5h-1V81z"/>
		<path class="st0" d="M139.5,74.9h2.1v11.7h3.5v1.9h-5.7V74.9z"/>
		<path class="st0" d="M145.9,78.2c0-2.2,1.1-3.4,3.2-3.4c2.1,0,3.2,1.2,3.2,3.4v7.1c0,2.2-1.1,3.4-3.2,3.4c-2.1,0-3.2-1.2-3.2-3.4
			V78.2z M148.1,85.4c0,1,0.4,1.3,1.1,1.3c0.7,0,1.1-0.4,1.1-1.3v-7.4c0-1-0.4-1.3-1.1-1.3c-0.7,0-1.1,0.4-1.1,1.3V85.4z"/>
		<path class="st0" d="M160.2,78.1v0.5c0,1.4-0.4,2.3-1.4,2.7c1.1,0.4,1.6,1.5,1.6,2.9v1.1c0,2.1-1.1,3.2-3.2,3.2h-3.4V74.9h3.2
			C159.3,74.9,160.2,76,160.2,78.1z M156,76.9v3.6h0.8c0.8,0,1.3-0.3,1.3-1.4v-0.8c0-1-0.3-1.4-1.1-1.4H156z M156,82.4v4.2h1.2
			c0.7,0,1.1-0.3,1.1-1.3v-1.2c0-1.3-0.4-1.7-1.4-1.7H156z"/>
		<path class="st0" d="M168.6,88.6h-2.2l-0.4-2.5h-2.6l-0.4,2.5h-2l2.2-13.6h3.1L168.6,88.6z M163.8,84.2h2.1l-1-6.9L163.8,84.2z"/>
		<path class="st0" d="M169.6,74.9h2.1v11.7h3.5v1.9h-5.7V74.9z"/>
		<path class="st0" d="M183.8,84.6l1.5-9.7h3v13.6h-2v-9.8l-1.5,9.8h-2l-1.6-9.6v9.6h-1.9V74.9h3L183.8,84.6z"/>
		<path class="st0" d="M196.7,88.6h-2.2l-0.4-2.5h-2.6l-0.4,2.5h-2l2.2-13.6h3.1L196.7,88.6z M191.8,84.2h2.1l-1-6.9L191.8,84.2z"/>
		<path class="st0" d="M202.1,88.6c-0.1-0.3-0.2-0.6-0.2-1.7v-2.1c0-1.3-0.4-1.7-1.4-1.7h-0.7v5.5h-2.1V74.9h3.2
			c2.2,0,3.2,1,3.2,3.1v1.1c0,1.4-0.4,2.3-1.4,2.8c1.1,0.4,1.4,1.5,1.4,2.9v2.1c0,0.7,0,1.1,0.2,1.7H202.1z M199.8,76.9v4.2h0.8
			c0.8,0,1.3-0.3,1.3-1.4v-1.3c0-1-0.3-1.4-1.1-1.4H199.8z"/>
		<path class="st0" d="M208.3,83.1l-0.7,1.2v4.2h-2.1V74.9h2.1v5.9l2.8-5.9h2.1l-3,6.1l3,7.5h-2.2L208.3,83.1z"/>
		<path class="st0" d="M215.7,80.7h2.9v1.9h-2.9v4h3.7v1.9h-5.8V74.9h5.8v1.9h-3.7V80.7z"/>
		<path class="st0" d="M220.1,74.9h6.6v1.9h-2.2v11.7h-2.1V76.9h-2.2V74.9z"/>
		<path class="st0" d="M227.6,74.9h2.1v13.6h-2.1V74.9z"/>
		<path class="st0" d="M233.2,78.7v9.9h-1.9V74.9h2.7l2.2,8.1v-8.1h1.9v13.6h-2.2L233.2,78.7z"/>
		<path class="st0" d="M242.8,81h3v4.3c0,2.2-1.1,3.4-3.2,3.4s-3.2-1.2-3.2-3.4v-7.1c0-2.2,1.1-3.4,3.2-3.4s3.2,1.2,3.2,3.4v1.3h-2
			v-1.5c0-1-0.4-1.3-1.1-1.3c-0.7,0-1.1,0.4-1.1,1.3v7.4c0,1,0.4,1.3,1.1,1.3c0.7,0,1.1-0.3,1.1-1.3v-2.5h-1V81z"/>
		<path class="st0" d="M250.2,74.9h3.4c2.1,0,3.2,1.2,3.2,3.4v6.9c0,2.2-1.1,3.4-3.2,3.4h-3.4V74.9z M252.4,76.9v9.7h1.2
			c0.7,0,1.1-0.3,1.1-1.3v-7.1c0-1-0.4-1.3-1.1-1.3H252.4z"/>
		<path class="st0" d="M258.2,74.9h2.1v13.6h-2.1V74.9z"/>
		<path class="st0" d="M265.1,81h3v4.3c0,2.2-1.1,3.4-3.2,3.4c-2.1,0-3.2-1.2-3.2-3.4v-7.1c0-2.2,1.1-3.4,3.2-3.4
			c2.1,0,3.2,1.2,3.2,3.4v1.3h-2v-1.5c0-1-0.4-1.3-1.1-1.3c-0.7,0-1.1,0.4-1.1,1.3v7.4c0,1,0.4,1.3,1.1,1.3c0.7,0,1.1-0.3,1.1-1.3
			v-2.5h-1V81z"/>
		<path class="st0" d="M269.5,74.9h2.1v13.6h-2.1V74.9z"/>
		<path class="st0" d="M272.5,74.9h6.6v1.9h-2.2v11.7h-2.1V76.9h-2.2V74.9z"/>
		<path class="st0" d="M286.3,88.6h-2.2l-0.4-2.5h-2.6l-0.4,2.5h-2l2.2-13.6h3.1L286.3,88.6z M281.4,84.2h2.1l-1-6.9L281.4,84.2z"/>
		<path class="st0" d="M287.3,74.9h2.1v11.7h3.5v1.9h-5.7V74.9z"/>
	</g>
</g>
<g>
	<g>
		<path class="st0" d="M582.1,59.5h-45.4c-3.8,0-7-3.1-7-7V7.1c0-3.8,3.1-7,7-7h45.4c3.8,0,7,3.1,7,7v45.4
			C589.1,56.4,586,59.5,582.1,59.5z"/>
		<rect x="508" y="21.5" class="st0" width="15.7" height="5.5"/>
		<rect x="551.1" y="65.6" class="st0" width="5.5" height="15.7"/>
		<rect x="508" y="32.6" class="st0" width="15.7" height="5.5"/>
		<path class="st0" d="M573.3-6h11.4c5.8,0,10.6,4.7,10.6,10.6V16h15.7v-33.2c0-2.4-2-4.4-4.4-4.4h-33.2V-6z"/>
		<rect x="562.2" y="-21.6" class="st0" width="5.5" height="15.7"/>
		<rect x="551.1" y="-21.6" class="st0" width="5.5" height="15.7"/>
		<path class="st0" d="M545.6,65.6h-11.4c-5.8,0-10.6-4.7-10.6-10.6V43.7H508v33.2c0,2.4,2,4.4,4.4,4.4h33.2V65.6z"/>
		<path class="st0" d="M595.2,43.7v11.4c0,5.8-4.7,10.6-10.6,10.6h-11.4v15.7h33.2c2.4,0,4.4-2,4.4-4.4V43.7H595.2z"/>
		<path class="st0" d="M523.6,16V4.6c0-5.8,4.7-10.6,10.6-10.6h11.4v-15.7h-33.2c-2.4,0-4.4,2-4.4,4.4V16H523.6z"/>
		<rect x="562.2" y="65.6" class="st0" width="5.5" height="15.7"/>
		<rect x="595.2" y="32.6" class="st0" width="15.7" height="5.5"/>
		<rect x="595.2" y="21.5" class="st0" width="15.7" height="5.5"/>
	</g>
	<g>
		<g>
			<path class="st0" d="M516.3,115.3c-2.6-1.4-4.6-3.2-6.1-5.7c-1.5-2.4-2.2-5.2-2.2-8.3c0-3.1,0.7-5.8,2.2-8.3
				c1.5-2.4,3.5-4.3,6.1-5.7c2.6-1.4,5.5-2,8.7-2c3,0,5.6,0.5,8,1.6c2.3,1,4.3,2.6,5.8,4.5l-6.5,5.8c-1.9-2.4-4.1-3.6-6.7-3.6
				c-2.2,0-3.9,0.7-5.2,2.1c-1.3,1.4-2,3.2-2,5.6c0,2.3,0.7,4.2,2,5.6c1.3,1.4,3,2.1,5.2,2.1c2.6,0,4.8-1.2,6.7-3.6l6.5,5.8
				c-1.5,2-3.4,3.5-5.8,4.5c-2.3,1-5,1.6-8,1.6C521.8,117.4,518.9,116.7,516.3,115.3z"/>
			<path class="st0" d="M554.8,109H552v7.7h-10.3V86.1h14.7c2.8,0,5.3,0.5,7.4,1.4c2.1,0.9,3.7,2.3,4.9,4c1.1,1.7,1.7,3.8,1.7,6.1
				c0,2.2-0.5,4.1-1.5,5.7c-1,1.6-2.4,2.9-4.3,3.9l6.4,9.4h-11L554.8,109z M558.9,95c-0.7-0.6-1.7-0.9-3.1-0.9H552v7.2h3.8
				c1.4,0,2.4-0.3,3.1-0.9c0.7-0.6,1-1.5,1-2.6S559.6,95.6,558.9,95z"/>
			<path class="st0" d="M601.6,116.7l-0.1-13.9l-6.6,11.2h-4.5l-6.6-10.7v13.5h-9.4V86.1h8.5l10,16.3l9.7-16.3h8.5l0.1,30.6H601.6z"
				/>
		</g>
		<g>
			<path class="st0" d="M510.1,123.6h1.9v2.8c0,1.4-0.7,2.2-2,2.2c-1.3,0-2-0.8-2-2.2v-4.5c0-1.4,0.7-2.2,2-2.2c1.3,0,2,0.8,2,2.2
				v0.8h-1.3v-0.9c0-0.6-0.3-0.9-0.7-0.9c-0.4,0-0.7,0.2-0.7,0.9v4.7c0,0.6,0.3,0.8,0.7,0.8c0.4,0,0.7-0.2,0.7-0.8v-1.6h-0.6V123.6z
				"/>
			<path class="st0" d="M512.9,119.8h1.4v7.5h2.2v1.2h-3.6V119.8z"/>
			<path class="st0" d="M517,121.9c0-1.4,0.7-2.2,2.1-2.2c1.3,0,2.1,0.8,2.1,2.2v4.5c0,1.4-0.7,2.2-2.1,2.2c-1.3,0-2.1-0.8-2.1-2.2
				V121.9z M518.4,126.5c0,0.6,0.3,0.9,0.7,0.9c0.4,0,0.7-0.2,0.7-0.9v-4.7c0-0.6-0.3-0.9-0.7-0.9c-0.4,0-0.7,0.2-0.7,0.9V126.5z"/>
			<path class="st0" d="M526.2,121.8v0.3c0,0.9-0.3,1.5-0.9,1.8c0.7,0.3,1,0.9,1,1.9v0.7c0,1.3-0.7,2.1-2.1,2.1h-2.2v-8.7h2.1
				C525.5,119.8,526.2,120.4,526.2,121.8z M523.4,121v2.3h0.5c0.5,0,0.8-0.2,0.8-0.9v-0.5c0-0.6-0.2-0.9-0.7-0.9H523.4z
				 M523.4,124.5v2.7h0.8c0.5,0,0.7-0.2,0.7-0.9v-0.8c0-0.8-0.3-1.1-0.9-1.1H523.4z"/>
			<path class="st0" d="M531.5,128.5h-1.4l-0.2-1.6h-1.7l-0.2,1.6h-1.3l1.4-8.7h2L531.5,128.5z M528.4,125.7h1.3l-0.7-4.4
				L528.4,125.7z"/>
			<path class="st0" d="M532.2,119.8h1.4v7.5h2.3v1.2h-3.6V119.8z"/>
			<path class="st0" d="M541.2,125.9l0.9-6.2h1.9v8.7h-1.3v-6.2l-0.9,6.2h-1.3l-1-6.2v6.2h-1.2v-8.7h1.9L541.2,125.9z"/>
			<path class="st0" d="M549.5,128.5h-1.4l-0.2-1.6h-1.7l-0.2,1.6h-1.3l1.4-8.7h2L549.5,128.5z M546.3,125.7h1.3l-0.7-4.4
				L546.3,125.7z"/>
			<path class="st0" d="M553,128.5c-0.1-0.2-0.1-0.4-0.1-1.1V126c0-0.8-0.3-1.1-0.9-1.1h-0.5v3.5h-1.4v-8.7h2.1c1.4,0,2,0.7,2,2v0.7
				c0,0.9-0.3,1.5-0.9,1.8c0.7,0.3,0.9,0.9,0.9,1.9v1.3c0,0.4,0,0.7,0.1,1.1H553z M551.5,121v2.7h0.5c0.5,0,0.8-0.2,0.8-0.9v-0.9
				c0-0.6-0.2-0.9-0.7-0.9H551.5z"/>
			<path class="st0" d="M556.9,125l-0.4,0.8v2.7h-1.4v-8.7h1.4v3.8l1.8-3.8h1.4l-1.9,3.9l1.9,4.8h-1.4L556.9,125z"/>
			<path class="st0" d="M561.6,123.4h1.9v1.2h-1.9v2.5h2.4v1.2h-3.7v-8.7h3.7v1.2h-2.4V123.4z"/>
			<path class="st0" d="M564.4,119.8h4.2v1.2h-1.4v7.5h-1.4V121h-1.4V119.8z"/>
			<path class="st0" d="M569.2,119.8h1.4v8.7h-1.4V119.8z"/>
			<path class="st0" d="M572.8,122.2v6.3h-1.2v-8.7h1.7l1.4,5.2v-5.2h1.2v8.7h-1.4L572.8,122.2z"/>
			<path class="st0" d="M579,123.6h1.9v2.8c0,1.4-0.7,2.2-2,2.2s-2-0.8-2-2.2v-4.5c0-1.4,0.7-2.2,2-2.2s2,0.8,2,2.2v0.8h-1.3v-0.9
				c0-0.6-0.3-0.9-0.7-0.9c-0.4,0-0.7,0.2-0.7,0.9v4.7c0,0.6,0.3,0.8,0.7,0.8c0.4,0,0.7-0.2,0.7-0.8v-1.6H579V123.6z"/>
			<path class="st0" d="M583.7,119.8h2.2c1.4,0,2,0.8,2,2.2v4.4c0,1.4-0.7,2.2-2,2.2h-2.2V119.8z M585.1,121v6.2h0.8
				c0.4,0,0.7-0.2,0.7-0.8v-4.5c0-0.6-0.3-0.8-0.7-0.8H585.1z"/>
			<path class="st0" d="M588.8,119.8h1.4v8.7h-1.4V119.8z"/>
			<path class="st0" d="M593.2,123.6h1.9v2.8c0,1.4-0.7,2.2-2,2.2s-2-0.8-2-2.2v-4.5c0-1.4,0.7-2.2,2-2.2s2,0.8,2,2.2v0.8h-1.3v-0.9
				c0-0.6-0.3-0.9-0.7-0.9c-0.4,0-0.7,0.2-0.7,0.9v4.7c0,0.6,0.3,0.8,0.7,0.8c0.4,0,0.7-0.2,0.7-0.8v-1.6h-0.6V123.6z"/>
			<path class="st0" d="M596,119.8h1.4v8.7H596V119.8z"/>
			<path class="st0" d="M597.9,119.8h4.2v1.2h-1.4v7.5h-1.4V121h-1.4V119.8z"/>
			<path class="st0" d="M606.7,128.5h-1.4l-0.2-1.6h-1.7l-0.2,1.6h-1.3l1.4-8.7h2L606.7,128.5z M603.6,125.7h1.3l-0.7-4.4
				L603.6,125.7z"/>
			<path class="st0" d="M607.3,119.8h1.4v7.5h2.3v1.2h-3.6V119.8z"/>
		</g>
	</g>
</g>
</svg>
